<?xml version="1.0" encoding="UTF-8"?>
<svg id="Capa_1" xmlns="http://www.w3.org/2000/svg" version="1.1" viewBox="0 0 500 417.16">
  <!-- Generator: Adobe Illustrator 30.0.0, SVG Export Plug-In . SVG Version: 2.1.1 Build 123)  -->
  <defs>
    <style>
      .st0 {
        fill: #fff;
      }
    </style>
  </defs>
  <path class="st0" d="M248.1,222.64c5.84,6.4,14.09-.52,16.86-6.57,9.32-20.38-11.81-43.32-28.67-51.91-38.45-19.6-90.33-8.03-122.91,17.98-2.92,2.33-5.86,4.37-8.61,6.61-.55.45-.14.13-3.95,3.29,1.24-2.51,1.32-2.56,1.57-3.05,29.44-58.49,54.4-120.31,81.99-180.05C187.97,2.69,194.05-.09,200.87,0c36.8.52,74.3.25,111.17.03,6.74.23,12.58,5.18,16.05,12.06,11.33,22.41,21.44,50.12,31.47,73.64,24.93,58.5,50.67,117.09,74.3,176.09,1.08,2.71,2.22,5.44,2.95,8.28-.2.82-6.35,4.96-7.54,5.86-51.37,39.09-143.2,50.64-196.34,8.38-.81-.64-1.04-.79-2.3-1.63-.68-.46-1.82-1.51-1.89-1.55-.4-.29-1.14-.84-1.38-1.06-.25-.23-.22-.22-1.27-1.51-.08-.1-.54-.61-1.06-1.44-.59-.94-1.34-2.42-2.25-4.45,32.28,18.7,73.73,23.2,110.36,18.57l-78-207.54-25.11,60.24c7.18,2.05,15.24,6.06,21.38,10.44,17.53,12.51,31.99,35.59,27.19,57.9-3.07,14.25-17.45,28.65-32.97,22.19-11.86-4.93-4.41-18.22-13.44-24.2-11.56-7.66-25.99.46-32.98,10.37-17.7,25.07,1.13,61.14,22.15,78.26,55.92,45.56,149.95,37.44,208.79-.02l15.45-10.32,54.16,127.63c.39,1.07.57.92-1.6.91h-118.5c-5.44-.03-8.42-3.76-9.89-5.33-2.96-3.17-11.19-23.99-13.42-29.48-.26-.65-.52-1.34-.78-2.06l-.37-.92c-.77-2.14-5.61-15.63-6.46-15.81-14.43,3.45-29.29,7.1-44.07,8.74-68.46,7.63-160.65-10.82-191.93-79.87-3.53-7.8-5.63-16.42-7.57-24.57-1.99,18.72,2.03,37.59,10.93,54.01,8.9,16.42,23.59,31.23,39.94,41.78.9.58.11.06,2.01,1.25-5.14,11.98-9.8,24.4-15.41,36.18-4.28,9-6.8,15.22-18.04,16.1l-124.6-.03c2.63-5.32.64-1.28,1.36-2.7,1.24-2.45,3.82-8.03,5.18-10.91,20.21-42.69,37.6-86.87,58.01-129.45,20.94-43.66,50.19-79.02,100.4-87.72,23.92-4.15,73.5-.24,81.62,28.45.51,1.81.66,6.56.91,6.8"/>
</svg>